<svg xmlns="http://www.w3.org/2000/svg">
  <symbol viewBox="0 0 14 17" id="icon-map" fill="none">
    <path d="M12.875 7.35227C12.875 11.8068 6.875 15.625 6.875 15.625C6.875 15.625 0.875 11.8068 0.875 7.35227C0.875 5.83331 1.50714 4.37655 2.63236 3.30248C3.75758 2.22841 5.2837 1.625 6.875 1.625C8.4663 1.625 9.99242 2.22841 11.1176 3.30248C12.2429 4.37655 12.875 5.83331 12.875 7.35227Z" stroke-width="1.33333" stroke-linecap="round" stroke-linejoin="round"/>
    <path d="M6.875 9.26154C7.97957 9.26154 8.875 8.40681 8.875 7.35245C8.875 6.29809 7.97957 5.44336 6.875 5.44336C5.77043 5.44336 4.875 6.29809 4.875 7.35245C4.875 8.40681 5.77043 9.26154 6.875 9.26154Z" stroke-width="1.33333" stroke-linecap="round" stroke-linejoin="round"/>
  </symbol>
  <symbol viewBox="0 0 14 14" id="icon-search">
    <path fill-rule="evenodd" clip-rule="evenodd" d="M10.0276 9.02893L13.7934 12.7948C13.9257 12.9273 14.0001 13.1069 14 13.2942C13.9999 13.4814 13.9255 13.661 13.793 13.7934C13.6606 13.9257 13.481 14.0001 13.2937 14C13.1064 13.9999 12.9269 13.9255 12.7945 13.793L9.0287 10.0271C7.90295 10.8991 6.48731 11.3094 5.06977 11.1746C3.65223 11.0399 2.33927 10.3701 1.39799 9.30165C0.456712 8.23318 -0.0421836 6.84624 0.0027973 5.42299C0.0477782 3.99973 0.633257 2.64707 1.64013 1.64017C2.647 0.633273 3.99963 0.0477794 5.42285 0.00279737C6.84607 -0.0421846 8.23297 0.456724 9.30142 1.39803C10.3699 2.33933 11.0396 3.65233 11.1743 5.0699C11.3091 6.48748 10.8988 7.90315 10.0269 9.02893H10.0276ZM5.60026 9.79961C6.71412 9.79961 7.78235 9.35712 8.56997 8.56948C9.35759 7.78185 9.80007 6.71358 9.80007 5.5997C9.80007 4.48581 9.35759 3.41755 8.56997 2.62992C7.78235 1.84228 6.71412 1.39979 5.60026 1.39979C4.4864 1.39979 3.41817 1.84228 2.63055 2.62992C1.84293 3.41755 1.40046 4.48581 1.40046 5.5997C1.40046 6.71358 1.84293 7.78185 2.63055 8.56948C3.41817 9.35712 4.4864 9.79961 5.60026 9.79961Z"/>
  </symbol>
  <symbol viewBox="0 0 14 14" id="icon-cart">
    <path d="M13.3798 4.59316C13.3329 4.5283 13.2746 4.47622 13.209 4.44052C13.1434 4.40482 13.072 4.38633 12.9998 4.38634H9.9998V2.02272C9.9998 1.55256 9.84177 1.10167 9.56046 0.769217C9.27916 0.436768 8.89763 0.25 8.4998 0.25H5.4998C5.10198 0.25 4.72045 0.436768 4.43914 0.769217C4.15784 1.10167 3.9998 1.55256 3.9998 2.02272V4.38634H0.999803C0.927326 4.38537 0.855537 4.40303 0.78941 4.43811C0.723283 4.47318 0.664399 4.52483 0.616838 4.58947C0.569277 4.65411 0.534176 4.73019 0.513968 4.81246C0.493759 4.89472 0.488926 4.98119 0.499803 5.06588L1.4398 12.2454C1.47596 12.5272 1.59709 12.7841 1.78085 12.9687C1.96461 13.1533 2.19864 13.2531 2.4398 13.2499H11.5698C11.811 13.2531 12.045 13.1533 12.2288 12.9687C12.4125 12.7841 12.5336 12.5272 12.5698 12.2454L13.4998 5.06588C13.5098 4.98152 13.5043 4.8956 13.4836 4.814C13.4629 4.73241 13.4275 4.65707 13.3798 4.59316ZM4.9998 2.02272C4.9998 1.866 5.05248 1.7157 5.14625 1.60488C5.24002 1.49407 5.36719 1.43181 5.4998 1.43181H8.4998C8.63241 1.43181 8.75959 1.49407 8.85336 1.60488C8.94712 1.7157 8.9998 1.866 8.9998 2.02272V4.38634H4.9998V2.02272ZM11.5698 12.0681H2.4298L1.5848 5.56815H12.4148L11.5698 12.0681Z"/>
  </symbol>
  <symbol viewBox="0 0 24 24" id="icon-facebook">
    <path d="M12 0C5.37294 0 0 5.40537 0 12.0724C0 18.0972 4.38764 23.0909 10.1254 24V15.5629H7.07711V12.0724H10.1254V9.41262C10.1254 6.38455 11.9172 4.71476 14.6571 4.71476C15.97 4.71476 17.3453 4.9502 17.3453 4.9502V7.91911H15.8284C14.3402 7.91911 13.8746 8.85119 13.8746 9.80622V12.07H17.2001L16.6685 15.5605H13.8746V23.9976C19.6124 23.0933 24 18.0984 24 12.0724C24 5.40537 18.6271 0 12 0Z"/>
  </symbol>
  <symbol viewBox="0 0 24 24" id="icon-instagram">
    <path d="M12 24C10.375 24 8.82031 23.6836 7.33594 23.0508C5.85156 22.418 4.57422 21.5664 3.50391 20.4961C2.43359 19.4258 1.58203 18.1484 0.949219 16.6641C0.316406 15.1797 0 13.625 0 12C0 10.375 0.316406 8.82031 0.949219 7.33594C1.58203 5.85156 2.43359 4.57422 3.50391 3.50391C4.57422 2.43359 5.85156 1.58203 7.33594 0.949219C8.82031 0.316406 10.375 0 12 0C13.625 0 15.1797 0.316406 16.6641 0.949219C18.1484 1.58203 19.4258 2.43359 20.4961 3.50391C21.5664 4.57422 22.418 5.85156 23.0508 7.33594C23.6836 8.82031 24 10.375 24 12C24 13.625 23.6836 15.1797 23.0508 16.6641C22.418 18.1484 21.5664 19.4258 20.4961 20.4961C19.4258 21.5664 18.1484 22.418 16.6641 23.0508C15.1797 23.6836 13.625 24 12 24ZM18 7.5C18 7.09375 17.8555 6.74219 17.5664 6.44531C17.2773 6.14844 16.9219 6 16.5 6H7.5C7.09375 6 6.74219 6.14844 6.44531 6.44531C6.14844 6.74219 6 7.09375 6 7.5V9H8.67188C9.57812 8 10.6875 7.5 12 7.5C13.3125 7.5 14.4219 8 15.3281 9H18V7.5ZM9 12C9 12.8281 9.29297 13.5352 9.87891 14.1211C10.4648 14.707 11.1719 15 12 15C12.8281 15 13.5352 14.707 14.1211 14.1211C14.707 13.5352 15 12.8281 15 12C15 11.1719 14.707 10.4648 14.1211 9.87891C13.5352 9.29297 12.8281 9 12 9C11.1719 9 10.4648 9.29297 9.87891 9.87891C9.29297 10.4648 9 11.1719 9 12ZM18 10.5H16.2188C16.4062 11.0156 16.5 11.5156 16.5 12C16.5 13.25 16.0625 14.3125 15.1875 15.1875C14.3125 16.0625 13.25 16.5 12 16.5C10.75 16.5 9.6875 16.0625 8.8125 15.1875C7.9375 14.3125 7.5 13.25 7.5 12C7.5 11.5156 7.59375 11.0156 7.78125 10.5H6V16.5C6 16.9219 6.14453 17.2773 6.43359 17.5664C6.72266 17.8555 7.07812 18 7.5 18H16.5C16.9219 18 17.2773 17.8555 17.5664 17.5664C17.8555 17.2773 18 16.9219 18 16.5V10.5Z"/>
  </symbol>
  <symbol viewBox="0 0 24 24" id="icon-twitter">
    <path d="M12.0005 0.480469C5.63807 0.480469 0.480469 5.63807 0.480469 12.0005C0.480469 18.3629 5.63807 23.5205 12.0005 23.5205C18.3629 23.5205 23.5205 18.3629 23.5205 12.0005C23.5205 5.63807 18.3629 0.480469 12.0005 0.480469ZM16.6865 9.91727C16.6913 10.0157 16.6925 10.1141 16.6925 10.2101C16.6925 13.2101 14.4113 16.6673 10.2377 16.6673C9.00442 16.6693 7.79683 16.3151 6.76007 15.6473C6.93647 15.6689 7.11767 15.6773 7.30127 15.6773C8.36447 15.6773 9.34247 15.3161 10.1189 14.7065C9.64573 14.6972 9.18727 14.5405 8.8074 14.2583C8.42753 13.9761 8.14517 13.5824 7.99967 13.1321C8.33946 13.1967 8.68949 13.1831 9.02327 13.0925C8.50973 12.9886 8.04791 12.7104 7.71612 12.3049C7.38433 11.8994 7.203 11.3916 7.20287 10.8677V10.8401C7.50887 11.0093 7.85927 11.1125 8.23127 11.1245C7.74983 10.804 7.40901 10.3117 7.27852 9.74823C7.14803 9.18478 7.23773 8.59277 7.52927 8.09327C8.09921 8.79407 8.80998 9.36736 9.61555 9.77604C10.4211 10.1847 11.3035 10.4197 12.2057 10.4657C12.091 9.97884 12.1403 9.46776 12.3461 9.01187C12.5518 8.55599 12.9024 8.18086 13.3434 7.94479C13.7843 7.70871 14.2909 7.62494 14.7843 7.70647C15.2778 7.78801 15.7305 8.0303 16.0721 8.39567C16.5799 8.2952 17.0668 8.10893 17.5121 7.84487C17.3428 8.37063 16.9885 8.81708 16.5149 9.10127C16.9647 9.04709 17.4039 8.92616 17.8181 8.74247C17.5139 9.19834 17.1306 9.59619 16.6865 9.91727Z"/>
  </symbol>
  <symbol viewBox="0 0 14 11" id="arrow-up">
    <path d="M0.583008 10.667H13.4163L6.99968 0.583659L0.583008 10.667Z"/>
  </symbol>
  <symbol viewBox="0 0 14 11" id="arrow-down">
    <path d="M13.417 0.333008L0.583657 0.333008L7.00032 10.4163L13.417 0.333008Z"/>
  </symbol>
  <svg viewBox="0 0 12 12" id="cross">
    <path d="M10.77 11.835L6.00004 7.05754L1.23004 11.835L0.165039 10.77L4.94254 6.00004L0.165039 1.23004L1.23004 0.165039L6.00004 4.94254L10.77 0.172539L11.8275 1.23004L7.05754 6.00004L11.8275 10.77L10.77 11.835Z" fill="#9F9E9E"/>
  </svg>
</svg>
